<?xml version="1.0" encoding="UTF-8" standalone="no"?>
<svg
   viewBox="0 0 72 72"
   version="1.1"
   id="svg1383"
   sodipodi:docname="fuzzyicon.svg"
   inkscape:version="1.2.2 (b0a8486541, 2022-12-01)"
   inkscape:export-filename="icon.png"
   inkscape:export-xdpi="300"
   inkscape:export-ydpi="300"
   xmlns:inkscape="http://www.inkscape.org/namespaces/inkscape"
   xmlns:sodipodi="http://sodipodi.sourceforge.net/DTD/sodipodi-0.dtd"
   xmlns:xlink="http://www.w3.org/1999/xlink"
   xmlns="http://www.w3.org/2000/svg"
   xmlns:svg="http://www.w3.org/2000/svg">
  <defs
     id="defs1387">
    <linearGradient
       inkscape:collect="always"
       id="linearGradient1635">
      <stop
         style="stop-color:#ff9472;stop-opacity:1;"
         offset="0"
         id="stop1631" />
      <stop
         style="stop-color:#f2709c;stop-opacity:1;"
         offset="1"
         id="stop1633" />
    </linearGradient>
    <linearGradient
       inkscape:collect="always"
       xlink:href="#linearGradient1635"
       id="linearGradient1629"
       x1="-11.632822"
       y1="-14.09163"
       x2="57.777943"
       y2="72"
       gradientUnits="userSpaceOnUse" />
  </defs>
  <sodipodi:namedview
     id="namedview1385"
     pagecolor="#ffffff"
     bordercolor="#999999"
     borderopacity="1"
     inkscape:showpageshadow="0"
     inkscape:pageopacity="0"
     inkscape:pagecheckerboard="0"
     inkscape:deskcolor="#d1d1d1"
     showgrid="false"
     inkscape:zoom="4.6771496"
     inkscape:cx="67.455614"
     inkscape:cy="28.222317"
     inkscape:window-width="1910"
     inkscape:window-height="965"
     inkscape:window-x="1680"
     inkscape:window-y="0"
     inkscape:window-maximized="0"
     inkscape:current-layer="svg1383" />
  <rect
     style="fill:url(#linearGradient1629);fill-opacity:1;stroke-width:2.1"
     id="rect1620"
     width="72"
     height="72"
     x="0"
     y="0"
     ry="14.670292" />
  <circle
     cx="36"
     cy="36"
     fill="#fcea2b"
     r="16.18215"
     id="circle1355"
     style="stroke-width:0.674256" />
  <path
     d="m 19.358414,35.096496 c -0.05684,0.117793 -0.198434,0.167283 -0.316294,0.110376 -0.04821,-0.02326 -0.08711,-0.06217 -0.110375,-0.110376 -0.654231,-1.358019 -2.285459,-1.928508 -3.643411,-1.274277 -1.35802,0.654231 -1.928508,2.285459 -1.274277,3.643411 0.07167,0.148741 0.15663,0.290672 0.253925,0.42404 l 4.877097,6.253592 4.848644,-6.215294 0.156428,-0.230731 c 0.783418,-1.287829 0.374482,-2.966862 -0.91328,-3.750213 -1.287762,-0.783351 -2.966862,-0.374482 -3.750213,0.91328 -0.04666,0.0766 -0.08941,0.155416 -0.128244,0.236192 z"
     fill="#ffa7c0"
     id="path1357"
     style="stroke-width:0.674256" />
  <path
     d="m 44.305895,16.891578 c -0.05684,0.117792 -0.198434,0.167283 -0.316294,0.110375 -0.04821,-0.02326 -0.08711,-0.06217 -0.110375,-0.110375 -0.654231,-1.35802 -2.285459,-1.928508 -3.643411,-1.274277 -1.357952,0.654231 -1.928508,2.285459 -1.274277,3.643411 0.07167,0.148741 0.156629,0.290672 0.253925,0.42404 l 4.877097,6.253591 4.848644,-6.215294 0.156428,-0.23073 c 0.783418,-1.28783 0.374482,-2.966862 -0.91328,-3.750213 -1.28783,-0.783419 -2.966863,-0.374482 -3.750213,0.91328 -0.04666,0.0766 -0.08941,0.155416 -0.128244,0.236192 z"
     fill="#ffa7c0"
     id="path1359"
     style="stroke-width:0.674256" />
  <path
     d="m 49.699945,47.233108 c -0.05684,0.117793 -0.198434,0.167283 -0.316294,0.110376 -0.04821,-0.02326 -0.08711,-0.06217 -0.110375,-0.110376 -0.654231,-1.358019 -2.285459,-1.928507 -3.643411,-1.274276 -1.35802,0.65423 -1.928508,2.285459 -1.274277,3.643411 0.07167,0.148741 0.156629,0.290671 0.253925,0.424039 l 4.877097,6.253592 4.848644,-6.215294 0.156428,-0.23073 c 0.783418,-1.28783 0.374482,-2.966863 -0.91328,-3.750214 -1.28783,-0.783418 -2.966863,-0.374481 -3.750214,0.913281 -0.04666,0.07659 -0.08941,0.155416 -0.128243,0.236191 z"
     fill="#ffa7c0"
     id="path1361"
     style="stroke-width:0.674256" />
  <g
     fill="none"
     stroke="#000000"
     stroke-linecap="round"
     stroke-width="2"
     id="g1381"
     transform="matrix(0.67425624,0,0,0.67425624,11.726777,11.726775)">
    <path
       d="m 45.815,44.8043 c -5.6998,4.6988 -13.9302,4.6988 -19.63,0"
       stroke-linejoin="round"
       id="path1363" />
    <path
       d="m 52.04,50.3656 c -2.2368,10e-5 -4.0499,1.8135 -4.0498,4.0502 0,0.7409 0.2033,1.4677 0.5878,2.1011 l 0.232,0.3422 7.1911,9.218 7.2333,-9.2748 c 1.3204,-1.8042 0.9281,-4.3372 -0.8761,-5.6576 -1.8042,-1.3204 -4.3372,-0.9281 -5.6576,0.8761 -0.147,0.2008 -0.2751,0.4148 -0.3828,0.6392 -0.0843,0.1747 -0.2943,0.2481 -0.4691,0.1637 C 55.7773,52.7892 55.7196,52.7315 55.6851,52.66 55.0167,51.2541 53.5967,50.3603 52.04,50.3656 Z"
       stroke-linejoin="round"
       id="path1365" />
    <path
       d="m 7.04,32.3656 c -2.2368,10e-5 -4.0499,1.8135 -4.0498,4.0502 0,0.7409 0.2033,1.4677 0.5878,2.1011 l 0.232,0.3422 7.1911,9.218 7.2333,-9.2748 c 1.3204,-1.8042 0.9281,-4.3372 -0.8761,-5.6576 -1.8042,-1.3204 -4.3372,-0.9281 -5.6576,0.8761 -0.147,0.2008 -0.2751,0.4148 -0.3828,0.6391 -0.0843,0.1747 -0.2943,0.2481 -0.4691,0.1637 C 10.7773,34.7891 10.7196,34.7314 10.6851,34.6599 10.0167,33.2541 8.5967,32.3603 7.04,32.3656 Z"
       stroke-linejoin="round"
       id="path1367" />
    <path
       d="m 44.04,5.3656 c -2.2368,1e-4 -4.0499,1.8135 -4.0498,4.0502 0,0.7409 0.2033,1.4677 0.5878,2.1011 l 0.232,0.3422 7.1911,9.218 7.2333,-9.2748 C 56.5548,9.9981 56.1625,7.4651 54.3583,6.1447 52.5541,4.8243 50.0211,5.2166 48.7007,7.0208 48.5537,7.2216 48.4256,7.4356 48.3179,7.66 48.2336,7.8347 48.0236,7.9081 47.8488,7.8237 47.7773,7.7892 47.7196,7.7315 47.6851,7.66 47.0167,6.2541 45.5967,5.3603 44.04,5.3656 Z"
       stroke-linejoin="round"
       id="path1369" />
    <path
       d="M 42.8076,57.9758 C 40.6563,58.6415 38.37,59 36,59 28.0609,59 21.0613,54.9776 16.928,48.8595"
       stroke-linejoin="round"
       id="path1371" />
    <path
       d="M 53.7479,21.3699 C 57.029,25.3456 59,30.4426 59,36 c 0,3.6035 -0.8287,7.0135 -2.3059,10.0497"
       stroke-linejoin="round"
       id="path1373" />
    <path
       d="M 14.7323,27.2273 C 18.1806,18.8766 26.404,13 36,13"
       stroke-linejoin="round"
       id="path1375" />
    <path
       d="m 31.6941,32.4036 c -1.0598,-2.3854 -3.8527,-3.46 -6.238,-2.4002 -1.0697,0.4752 -1.9249,1.3305 -2.4002,2.4002"
       stroke-miterlimit="10"
       id="path1377" />
    <path
       d="m 48.9441,32.4036 c -1.0598,-2.3854 -3.8527,-3.46 -6.238,-2.4002 -1.0697,0.4752 -1.9249,1.3305 -2.4002,2.4002"
       stroke-miterlimit="10"
       id="path1379" />
  </g>
</svg>
